<?xml version="1.0" standalone="no"?>
<!DOCTYPE svg PUBLIC "-//W3C//DTD SVG 20010904//EN"
 "http://www.w3.org/TR/2001/REC-SVG-20010904/DTD/svg10.dtd">
<svg version="1.0" xmlns="http://www.w3.org/2000/svg"
 width="800.000000pt" height="800.000000pt" viewBox="0 0 800.000000 800.000000"
 preserveAspectRatio="xMidYMid meet">

<g transform="translate(0.000000,800.000000) scale(0.100000,-0.100000)"
fill="#000000" stroke="none">
<path d="M3630 7569 c-235 -31 -432 -94 -660 -213 -157 -81 -178 -93 -206
-115 -15 -12 -31 -21 -36 -21 -6 0 -24 -12 -42 -26 -17 -14 -65 -51 -106 -81
-41 -30 -104 -81 -139 -112 -36 -31 -82 -72 -104 -91 -60 -52 -231 -232 -286
-300 -48 -60 -46 -58 -121 -114 -77 -58 -197 -163 -259 -226 -102 -103 -301
-355 -301 -379 0 -5 -7 -14 -15 -21 -14 -12 -126 -232 -160 -315 -98 -238
-127 -569 -59 -672 14 -23 49 -30 70 -15 6 4 39 61 74 127 67 128 160 279 167
272 3 -4 -20 -105 -47 -207 -23 -87 -55 -279 -66 -395 -3 -38 -8 -86 -10 -105
-7 -58 -5 -360 2 -371 3 -6 8 -34 9 -62 1 -29 8 -79 15 -113 l12 -61 -38 -54
c-58 -81 -86 -113 -225 -249 -70 -69 -144 -134 -165 -145 -22 -11 -42 -23 -45
-28 -7 -10 -149 -97 -158 -97 -16 0 -49 -46 -56 -77 -6 -28 -1 -37 34 -75 52
-57 149 -105 242 -121 72 -13 259 -14 309 -3 14 3 39 8 55 12 17 3 50 12 74
20 24 8 45 13 46 12 1 -2 16 -49 34 -105 17 -56 36 -105 41 -108 21 -13 7 -23
-72 -60 -112 -50 -131 -69 -124 -118 8 -45 77 -176 119 -224 16 -18 37 -33 47
-33 10 0 47 25 81 55 35 30 65 52 67 50 2 -2 -7 -19 -21 -37 -35 -47 -144
-238 -178 -313 -41 -91 -30 -126 53 -173 59 -32 168 -77 210 -86 l27 -6 -16
-38 c-30 -71 -45 -147 -49 -243 -3 -81 0 -107 19 -160 28 -80 76 -131 120
-127 29 3 32 8 54 78 13 41 27 78 31 82 5 5 19 -25 31 -64 35 -109 120 -223
209 -281 93 -60 189 -84 268 -67 86 20 105 57 57 114 -112 133 -104 371 23
634 l35 72 52 0 c107 0 209 38 334 122 23 15 49 35 57 44 15 14 20 12 58 -21
40 -34 134 -85 157 -85 6 0 1 -19 -10 -42 -64 -130 -61 -126 -121 -153 -51
-23 -59 -30 -68 -67 -6 -22 -9 -57 -5 -77 5 -29 -3 -56 -40 -141 -76 -173 -95
-231 -99 -295 -3 -40 -23 -114 -60 -223 -33 -95 -54 -171 -51 -182 3 -11 18
-28 33 -38 96 -66 244 -42 522 83 78 35 106 43 109 33 7 -21 60 -67 95 -82 55
-24 121 -40 207 -51 30 -4 56 -9 58 -11 2 -2 -6 -34 -18 -71 -32 -96 -28 -294
7 -320 32 -26 113 -7 247 56 86 41 116 69 155 149 l35 69 66 20 65 19 61 -66
c50 -54 70 -69 117 -83 79 -25 116 -31 188 -28 43 2 58 41 51 131 -5 67 -4 73
12 66 30 -11 195 -34 293 -40 51 -4 96 -7 100 -8 23 -6 240 34 266 50 5 3 -11
15 -35 27 -42 22 -47 22 -109 9 -86 -18 -260 -18 -385 1 -143 21 -183 35 -208
70 -12 17 -29 39 -39 49 -10 11 -17 21 -15 22 1 1 22 5 47 8 131 18 220 39
220 52 0 18 -14 17 -177 -5 -100 -13 -139 -15 -165 -7 -18 6 -32 16 -30 21 2
6 62 28 135 51 73 22 183 64 246 92 63 29 121 52 128 52 16 0 16 16 0 52 l-12
26 -99 -49 c-55 -27 -105 -49 -112 -49 -7 0 -19 -6 -27 -14 -13 -14 -192 -77
-316 -112 l-61 -17 -25 27 c-13 14 -26 26 -28 26 -2 0 -29 5 -58 10 -93 18
-192 14 -239 -10 -22 -11 -43 -27 -47 -35 -7 -21 -28 -19 -105 9 -88 32 -134
55 -149 72 -6 8 -18 14 -27 14 -18 0 -101 51 -159 98 -33 28 -44 46 -58 95
-22 80 -33 158 -41 293 -7 122 -1 139 36 99 13 -14 30 -25 38 -25 9 0 43 29
76 64 103 108 198 164 269 158 39 -4 10 32 -36 43 -49 13 -123 -27 -239 -127
-36 -32 -70 -58 -75 -58 -12 0 -50 78 -67 140 -28 104 -39 206 -37 339 1 37 7
49 37 77 31 30 41 34 72 29 21 -3 58 -8 85 -12 l47 -6 0 -61 c1 -38 7 -73 18
-93 22 -40 122 -128 232 -201 46 -31 102 -76 124 -99 l39 -42 58 48 c34 29 82
57 120 70 56 20 109 42 257 108 19 8 44 12 56 9 28 -7 88 33 142 94 45 52 86
88 125 112 41 25 86 65 151 133 31 33 59 57 63 54 19 -19 -84 -191 -177 -294
-109 -123 -167 -211 -192 -292 -8 -24 -16 -28 -32 -14 -5 4 -45 23 -88 41 -84
34 -156 41 -210 20 -43 -16 -21 -30 47 -30 54 0 73 -6 156 -48 l94 -49 -2 -90
c-3 -137 39 -228 116 -254 41 -13 47 -9 88 66 30 56 95 145 106 145 4 0 28 20
55 45 26 25 50 45 54 45 4 0 15 12 25 26 14 22 15 31 5 55 -12 28 -25 37 -32
21 -1 -4 -32 -29 -68 -56 -77 -57 -174 -159 -191 -198 -6 -15 -15 -28 -20 -28
-5 0 -9 -7 -9 -15 0 -22 -18 -19 -25 4 -38 120 -28 226 32 344 29 58 113 173
172 237 47 51 172 256 190 312 16 48 20 51 126 84 50 15 92 30 95 34 3 3 23
11 45 19 85 29 224 101 238 123 7 13 27 46 43 73 l30 51 -150 -76 c-172 -85
-215 -105 -306 -138 -98 -35 -347 -109 -415 -122 -33 -7 -73 -16 -90 -21 -16
-4 -52 -11 -80 -15 l-50 -6 38 39 c20 22 37 49 37 62 0 37 -49 75 -128 100
-63 20 -76 22 -97 11 -38 -20 -162 -148 -201 -207 -19 -29 -40 -54 -47 -54 -7
-1 -23 -3 -37 -5 -43 -5 -361 -5 -440 0 -85 6 -195 15 -256 21 -131 13 -425
86 -550 136 -222 89 -415 200 -522 303 -92 87 -140 179 -173 326 -5 25 -12 53
-15 63 -5 16 0 17 53 11 75 -9 143 -49 143 -84 0 -42 21 -104 43 -129 22 -23
24 -23 147 -17 121 6 229 19 260 30 8 2 40 7 70 10 102 10 289 54 415 98 109
37 135 62 135 129 0 26 -6 51 -12 56 -7 5 -85 40 -173 78 -223 95 -556 259
-710 351 -71 42 -131 78 -133 79 -11 9 -21 165 -13 210 l6 40 27 -45 c30 -53
129 -150 177 -174 18 -10 56 -21 84 -26 45 -7 53 -5 73 15 22 23 23 24 7 86
-24 100 -21 366 6 497 11 57 21 117 21 133 0 16 2 29 5 29 14 0 215 -217 215
-232 0 -10 11 -39 24 -65 14 -27 42 -83 62 -127 34 -72 118 -207 154 -247 76
-85 173 -175 210 -196 25 -14 56 -33 70 -43 14 -9 55 -28 92 -42 58 -22 73
-25 108 -16 22 6 40 16 40 23 0 7 -21 52 -47 100 l-46 88 59 -31 c99 -52 175
-76 294 -93 l75 -11 -3 -57 c-4 -69 16 -94 77 -94 49 0 57 5 82 55 22 43 72
118 122 181 40 51 188 174 231 192 19 8 37 19 41 25 3 5 10 10 15 10 5 0 -8
-26 -29 -57 -64 -98 -113 -223 -126 -318 -11 -83 -13 -225 -3 -269 44 -194 82
-278 160 -356 57 -57 117 -88 213 -110 43 -10 67 -22 83 -42 30 -36 43 -35 81
4 17 17 31 29 31 26 0 -3 17 -2 38 3 20 5 52 12 71 14 53 8 126 53 191 118 72
72 101 121 141 242 30 87 33 91 80 118 31 17 49 22 49 14 -1 -20 -27 -120 -38
-147 -6 -14 -24 -62 -41 -107 -26 -69 -79 -165 -101 -183 -17 -14 -17 -41 0
-62 16 -20 27 -23 77 -22 125 2 203 34 383 154 64 43 197 177 267 269 59 79
90 92 226 94 81 2 97 5 95 17 -5 23 -75 43 -150 44 -38 0 -68 2 -68 5 0 2 6
12 14 20 19 22 78 135 106 203 l23 57 39 -28 c39 -29 99 -101 112 -136 16 -40
21 -81 21 -160 0 -68 -6 -93 -35 -165 -29 -70 -47 -97 -107 -157 l-71 -73 39
-21 40 -20 32 23 c18 12 39 31 47 42 64 85 97 141 121 209 24 69 27 92 25 181
-1 55 -7 110 -13 121 -6 11 -21 45 -34 75 -23 51 -129 170 -153 170 -5 0 -19
9 -30 19 -12 11 -33 22 -47 26 -25 6 -27 3 -58 -82 -51 -141 -156 -332 -238
-433 -124 -153 -255 -263 -378 -319 -106 -49 -107 -49 -152 -54 -41 -5 -42 -4
-29 17 24 36 108 238 112 265 1 14 12 60 23 101 12 41 24 105 27 141 8 79 -4
94 -44 57 -39 -36 -114 -88 -126 -88 -6 0 -33 -11 -61 -25 -59 -29 -68 -30
-85 -10 -10 12 -8 21 8 47 11 18 30 58 42 88 12 30 30 73 40 95 24 55 41 111
38 121 -2 5 5 34 14 64 9 30 22 82 28 115 6 33 15 80 21 105 20 95 35 315 21
324 -5 3 -25 7 -43 10 -96 12 -320 126 -474 241 -89 67 -193 168 -234 229 -35
51 -64 58 -69 18 -3 -22 61 -196 79 -216 5 -6 9 -16 9 -22 0 -21 139 -261 189
-326 12 -14 21 -29 21 -33 0 -11 -107 1 -157 16 -24 8 -43 17 -43 21 0 5 -6 8
-13 8 -17 0 -97 52 -158 102 -26 21 -51 38 -55 38 -16 0 -206 204 -273 294
-38 50 -82 120 -100 156 -47 97 -70 123 -104 115 -33 -9 -34 -14 -42 -179 -3
-71 -8 -133 -10 -137 -3 -4 -7 -36 -10 -71 -3 -34 -8 -79 -12 -98 -3 -19 -5
-39 -4 -44 1 -4 -5 -27 -13 -50 -7 -22 -19 -61 -26 -86 -7 -25 -28 -78 -47
-119 -31 -64 -34 -76 -23 -100 27 -60 149 -230 207 -288 l63 -62 -38 -7 c-20
-3 -53 -9 -72 -13 -58 -12 -257 21 -335 55 -22 10 -42 18 -45 19 -3 0 -16 7
-30 15 -14 8 -41 22 -60 32 -19 10 -54 29 -76 43 -80 47 -79 -10 3 -161 24
-46 42 -84 40 -84 -2 0 -30 11 -61 25 -111 49 -233 157 -340 299 -55 72 -153
258 -176 331 -7 22 -16 44 -21 49 -5 6 -9 21 -9 34 0 13 -5 32 -11 43 -6 11
-12 30 -14 42 -3 12 -11 49 -19 82 -31 130 -36 156 -46 244 -7 51 -12 128 -13
172 -2 61 -6 83 -18 89 -33 19 -58 -1 -93 -74 -31 -64 -73 -176 -81 -216 -2
-8 -4 -15 -5 -15 -1 0 -8 -25 -15 -55 -7 -30 -20 -82 -29 -115 -9 -33 -19 -80
-22 -105 -3 -25 -8 -48 -10 -51 -2 -4 -6 -37 -9 -75 -3 -38 -8 -87 -10 -109
-7 -68 -5 -257 4 -320 5 -33 7 -62 5 -64 -2 -2 -23 4 -47 13 -79 30 -184 158
-231 281 -43 112 -45 115 -59 115 -35 0 -56 -273 -34 -451 10 -86 47 -250 62
-273 7 -12 16 -36 20 -55 16 -75 74 -179 158 -283 45 -56 38 -64 -45 -55 -51
6 -113 34 -198 87 -37 24 -58 29 -115 31 -145 5 -258 73 -356 215 -16 24 -33
44 -38 44 -24 0 -74 -87 -86 -150 -9 -51 -10 -149 -1 -199 11 -62 72 -188 111
-231 19 -21 10 -29 -38 -37 -18 -2 -70 -18 -117 -35 -47 -16 -91 -30 -99 -31
-8 -1 -25 25 -42 64 -33 77 -38 99 -45 199 -3 41 -7 77 -10 79 -2 2 -36 -10
-76 -27 -156 -67 -193 -75 -333 -76 -103 -1 -143 3 -190 18 -78 26 -137 62
-133 83 3 14 53 51 108 81 45 23 90 55 90 63 0 5 6 9 14 9 8 0 16 7 20 15 3 8
12 15 19 15 22 0 238 217 303 305 116 157 127 179 120 238 -3 29 -13 70 -21
93 -23 66 -35 313 -23 489 6 102 11 142 23 220 2 17 6 44 9 62 2 18 7 36 10
41 3 5 8 24 11 43 11 76 36 179 60 259 15 47 32 103 39 125 7 22 20 57 29 79
9 21 17 43 17 48 0 11 43 117 92 223 15 32 -200 -195 -238 -252 -19 -29 -39
-53 -43 -53 -4 0 -14 -12 -22 -27 -8 -16 -16 -30 -19 -33 -14 -12 -100 -149
-120 -190 -12 -25 -30 -62 -41 -83 -10 -22 -19 -45 -19 -53 0 -8 -5 -14 -11
-14 -18 0 -8 243 14 325 36 136 167 436 203 466 8 6 14 17 14 24 0 8 4 15 8
17 4 2 20 23 36 48 52 84 97 144 162 213 35 38 64 70 64 73 0 10 212 207 335
311 44 37 85 74 91 83 7 8 22 26 34 40 12 14 39 45 60 70 52 61 177 186 235
235 26 22 67 57 90 78 24 20 58 48 76 60 19 13 59 42 89 65 30 23 61 42 68 42
6 0 12 4 12 8 0 31 386 223 535 266 33 10 78 24 100 31 153 49 470 79 595 55
27 -5 73 -12 102 -15 29 -4 55 -11 56 -16 2 -5 12 -9 21 -9 19 0 123 -36 215
-74 58 -24 59 -24 110 -6 28 9 78 21 111 25 33 4 69 9 80 11 110 16 469 -6
555 -35 14 -5 50 -14 80 -21 140 -31 311 -99 422 -167 21 -13 64 -37 95 -54
63 -34 57 -30 223 -160 271 -212 540 -525 651 -759 55 -116 65 -132 98 -153
70 -43 215 -178 291 -270 14 -17 35 -41 47 -55 12 -13 36 -46 54 -73 17 -27
35 -49 40 -49 5 0 9 -8 9 -19 0 -10 7 -24 15 -31 8 -7 15 -17 15 -22 0 -6 8
-22 18 -36 11 -15 33 -63 51 -107 18 -44 36 -89 41 -100 5 -11 14 -54 20 -95
7 -41 14 -82 17 -90 16 -48 -16 -300 -38 -300 -4 0 -24 28 -44 63 -35 60 -68
110 -100 152 -52 67 -141 174 -146 174 -6 1 -3 -18 30 -184 25 -123 36 -257
35 -435 -1 -169 -6 -250 -16 -250 -4 0 -8 -19 -8 -42 l0 -43 -33 55 c-46 77
-69 129 -64 143 3 7 8 5 12 -7 11 -26 75 -120 75 -110 0 10 -39 76 -49 84 -3
3 -14 19 -23 35 -18 32 -35 32 -30 0 2 -19 19 -55 90 -188 35 -66 106 -167
148 -214 16 -17 41 -43 55 -59 15 -16 47 -46 70 -66 24 -20 64 -55 89 -77 25
-22 49 -41 53 -41 4 0 34 -17 65 -39 31 -21 83 -47 114 -57 32 -11 58 -22 58
-25 0 -11 -45 -54 -85 -81 -122 -80 -404 -119 -600 -81 -71 14 -182 58 -240
95 -11 7 -45 40 -77 73 -48 50 -58 56 -58 38 0 -33 28 -85 57 -106 20 -16 18
-10 -11 28 -54 70 -43 85 14 22 66 -72 197 -139 321 -162 l85 -17 12 -68 c6
-38 19 -86 28 -107 23 -56 77 -164 95 -193 50 -78 75 -116 84 -126 6 -7 37
-43 70 -80 98 -113 222 -201 332 -236 40 -13 73 -26 73 -30 0 -11 -72 -62
-120 -85 -40 -19 -188 -59 -230 -62 -109 -7 -241 -5 -305 5 -87 13 -229 63
-285 101 -19 12 -40 23 -47 23 -18 0 -30 -29 -32 -78 -1 -56 -34 -179 -62
-233 -12 -24 -22 -46 -22 -49 -1 -14 -63 -118 -83 -141 -13 -14 -24 -31 -24
-38 0 -17 -138 -158 -172 -177 -33 -17 -42 -18 -32 -3 12 20 14 251 3 306 -7
37 -18 59 -36 73 -24 19 -27 19 -45 4 -10 -10 -30 -38 -44 -63 -25 -45 -25
-47 -9 -81 16 -33 18 -34 31 -15 8 10 14 22 14 27 0 4 5 8 10 8 6 0 10 -34 9
-88 -1 -48 4 -100 10 -115 6 -16 11 -62 11 -103 0 -41 4 -74 9 -74 22 0 81 27
126 58 71 50 205 198 232 257 13 30 17 36 59 106 12 20 27 51 33 70 16 54 70
201 76 207 2 3 35 -5 72 -17 38 -12 82 -26 98 -31 109 -33 391 -37 515 -6 123
31 249 92 291 142 23 27 48 88 41 99 -4 5 -7 16 -8 23 -3 20 -5 21 -69 37 -55
15 -163 68 -215 107 -100 75 -215 200 -273 298 -15 25 -32 52 -37 60 -28 45
-63 140 -64 175 -1 40 -1 40 39 42 254 16 537 172 523 289 -3 29 -6 31 -83 64
-196 85 -349 205 -492 388 l-65 82 15 88 c12 65 15 138 12 287 -2 110 -6 215
-9 233 -5 34 7 44 18 15 4 -10 25 -54 49 -98 48 -92 67 -101 116 -59 69 58
104 170 103 335 -1 129 -14 196 -62 319 -46 116 -55 136 -67 151 -7 8 -13 19
-13 23 0 12 -88 146 -143 216 -65 83 -147 169 -272 283 -97 89 -131 136 -181
246 -14 31 -59 98 -75 111 -3 3 -21 28 -40 55 -126 185 -345 423 -514 559 -38
32 -79 64 -89 73 -11 9 -56 40 -100 69 -45 29 -86 57 -92 62 -5 5 -51 32 -102
60 -102 56 -216 102 -337 136 -44 13 -87 26 -95 29 -21 8 -68 17 -115 23 -22
2 -60 9 -85 14 -123 28 -430 31 -542 5 -146 -33 -166 -32 -300 18 -60 22 -173
54 -173 48 0 -1 -12 2 -27 8 -72 27 -316 32 -488 10z m-685 -2702 c7 -75 18
-141 34 -202 5 -22 7 -43 2 -48 -6 -6 -93 84 -114 120 -6 10 11 65 55 182 12
33 15 26 23 -52z m1470 -128 l35 -47 -23 -15 c-31 -20 -169 -78 -174 -73 -2 2
0 30 6 62 10 57 19 155 20 239 l1 39 50 -79 c27 -44 66 -101 85 -126z m703
-111 c42 -28 113 -76 157 -105 44 -30 135 -81 203 -114 69 -34 122 -66 122
-74 0 -8 -9 -76 -20 -152 -11 -76 -21 -150 -22 -165 -1 -16 -3 -28 -4 -28 -2
0 -17 25 -34 55 -37 65 -141 162 -214 201 -46 24 -52 30 -43 45 9 14 5 24 -16
51 -61 74 -112 145 -134 183 -37 66 -78 140 -81 148 -7 15 11 5 86 -45z m-597
-15 c25 -28 137 -133 141 -133 3 0 26 -20 53 -45 27 -24 61 -49 76 -55 15 -7
30 -18 33 -26 8 -20 -4 -44 -21 -44 -29 0 -176 -53 -241 -87 -80 -41 -198
-130 -245 -183 -40 -46 -50 -49 -65 -16 -6 13 -24 39 -40 57 -16 19 -37 48
-46 64 -9 17 -22 38 -28 47 -10 13 -8 25 9 60 36 73 68 162 65 180 -2 9 2 19
8 23 5 3 10 15 10 25 0 11 10 22 23 26 35 10 227 106 233 115 8 13 18 11 35
-8z m599 -498 c43 -8 173 -67 225 -102 72 -48 99 -73 130 -120 l27 -43 -21
-77 c-11 -42 -24 -79 -29 -82 -5 -3 -12 -17 -16 -31 -7 -25 -32 -83 -47 -110
-43 -76 -50 -94 -44 -118 9 -42 63 -62 132 -48 l33 6 -21 -52 c-12 -29 -25
-62 -29 -73 -20 -48 -78 -126 -120 -159 -25 -20 -50 -41 -57 -46 -7 -6 -19
-10 -27 -10 -8 0 -17 -4 -20 -8 -3 -5 -40 -17 -81 -27 -88 -21 -172 -16 -250
13 -110 41 -173 99 -224 205 -43 90 -61 166 -67 287 -5 91 -2 118 19 202 25
93 93 248 109 248 4 0 8 6 8 14 0 21 78 104 119 127 31 17 49 19 131 15 52 -3
106 -8 120 -11z m-2555 -579 c72 -50 262 -143 390 -191 33 -13 60 -27 60 -31
0 -5 -69 -13 -153 -19 l-153 -10 -37 40 c-46 49 -142 198 -142 220 0 9 16 5
35 -9z m-624 -129 c30 -24 82 -58 115 -75 l60 -30 38 -139 c20 -76 40 -146 43
-155 10 -31 -58 -23 -102 12 -26 21 -49 30 -73 30 -30 0 -44 8 -86 53 -28 29
-58 68 -67 87 -9 19 -22 48 -30 64 -15 32 -20 207 -6 240 7 18 9 17 30 -11 12
-17 47 -51 78 -76z m3159 -436 c0 -10 -11 -30 -25 -45 -20 -22 -28 -25 -45
-16 -20 11 -42 44 -47 70 -2 12 9 14 57 12 49 -3 60 -7 60 -21z m-3160 11 c0
-11 -138 -143 -197 -188 -73 -55 -98 -75 -183 -143 -41 -33 -79 -59 -85 -58
-11 4 -80 121 -89 153 -5 18 9 28 121 84 71 35 191 85 268 111 143 49 165 55
165 41z m76 -58 c-8 -21 -29 -73 -47 -114 -17 -41 -44 -113 -59 -160 -15 -47
-55 -162 -88 -256 -33 -95 -68 -207 -77 -249 l-17 -77 -34 5 c-70 12 -214 86
-214 110 0 30 153 312 220 407 138 194 308 396 322 382 5 -5 2 -26 -6 -48z
m108 -31 c3 -16 8 -64 11 -108 4 -44 15 -114 25 -155 11 -41 18 -74 17 -75 -1
0 -30 -26 -64 -57 -57 -54 -63 -57 -90 -47 -15 5 -41 20 -57 33 l-28 23 32 99
c48 150 92 277 102 297 14 27 46 21 52 -10z m136 7 c0 -6 26 -35 57 -65 l57
-54 -26 -38 c-14 -21 -46 -60 -71 -88 l-44 -50 -22 91 c-11 50 -21 116 -21
147 0 53 1 56 28 60 15 2 30 5 35 6 4 0 7 -4 7 -9z m333 -251 l79 -40 -5 -42
c-9 -75 -44 -193 -86 -290 -21 -50 -95 -181 -117 -207 -26 -32 -101 -191 -127
-270 -43 -129 -48 -160 -50 -280 -1 -120 17 -204 53 -240 3 -3 12 -14 20 -24
15 -19 13 -19 -47 -14 -84 8 -144 39 -220 114 -84 83 -131 179 -138 284 -7 98
-13 120 -29 120 -31 0 -118 -138 -139 -222 -4 -16 -11 -28 -15 -28 -23 0 -56
161 -47 227 3 21 8 55 11 76 3 21 10 50 15 65 6 15 12 35 14 45 4 19 44 102
73 152 50 87 104 149 298 345 117 118 232 239 254 268 l42 53 42 -26 c22 -14
76 -44 119 -66z m1970 -45 c20 -13 37 -28 37 -32 0 -13 -47 -54 -137 -119 -56
-41 -79 -63 -74 -72 5 -7 51 -23 104 -36 93 -23 177 -58 177 -73 0 -4 -29 -36
-64 -71 l-64 -63 -47 23 c-58 29 -152 113 -201 181 l-38 51 24 41 c60 105 181
213 225 200 11 -3 37 -17 58 -30z m-1730 -73 c37 -17 74 -31 82 -31 7 0 16 -4
19 -9 3 -5 16 -11 28 -14 13 -3 41 -11 63 -17 22 -6 47 -12 55 -14 8 -2 47
-13 87 -24 40 -11 97 -24 128 -27 30 -4 57 -11 60 -15 9 -15 -30 -97 -79 -165
-28 -38 -55 -73 -60 -76 -14 -11 -88 1 -121 19 -16 9 -51 38 -76 64 -26 27
-51 48 -56 48 -5 0 -35 -25 -67 -56 -70 -68 -178 -122 -267 -134 -35 -5 -67
-6 -71 -2 -4 4 15 51 42 104 27 53 46 99 43 102 -3 3 -1 11 5 18 9 12 44 118
47 143 3 27 17 111 20 122 5 14 15 11 118 -36z m1982 -137 c-88 -80 -82 -79
-161 -42 l-69 32 85 19 c47 10 101 22 120 26 74 18 78 13 25 -35z m-2861 3
l28 -23 -28 -30 c-16 -16 -46 -49 -66 -74 l-36 -44 13 54 c26 104 39 140 53
140 4 0 20 -10 36 -23z m1809 -119 c18 -12 34 -23 36 -24 2 -2 -12 -21 -30
-43 l-34 -41 -17 21 c-21 25 -23 48 -6 84 14 30 12 30 51 3z m515 -79 c39 -44
77 -98 71 -102 -2 -2 -49 -22 -104 -46 -55 -25 -121 -61 -146 -82 l-45 -37
-35 30 c-19 17 -71 55 -117 85 l-82 53 41 61 c37 55 43 60 69 54 38 -8 167 -9
205 -1 28 6 97 23 103 25 1 1 19 -18 40 -40z m-954 -84 c2 -22 8 -54 11 -71 6
-29 4 -32 -53 -66 -33 -20 -70 -39 -82 -43 -20 -6 -19 -3 10 56 33 63 101 172
106 167 1 -2 5 -21 8 -43z m37 -177 c6 -61 11 -86 21 -106 11 -22 6 -29 -77
-112 -50 -49 -93 -90 -96 -90 -4 0 0 28 9 61 14 59 14 63 -3 75 -10 8 -33 14
-49 14 -30 0 -66 15 -56 23 27 20 111 77 115 77 3 0 28 16 57 34 57 37 77 43
79 24z m-248 -213 c29 -7 51 -17 50 -22 -1 -6 -4 -33 -6 -61 -4 -46 -1 -53 20
-68 28 -18 27 -18 120 70 29 27 54 48 57 45 2 -2 7 -47 10 -99 3 -52 8 -121
12 -153 5 -49 4 -60 -11 -71 -15 -11 -24 -10 -56 6 -21 10 -42 18 -47 18 -5 0
-19 12 -33 26 -45 48 -53 48 -112 -3 -57 -50 -158 -109 -192 -113 -40 -4 -43
-1 -36 33 16 69 93 248 122 283 8 10 10 35 5 80 -8 78 0 97 26 64 11 -14 39
-28 71 -35z m86 -358 c28 -23 111 -68 111 -60 0 4 4 3 8 -3 4 -7 6 -48 4 -92
l-3 -80 -87 -30 c-48 -17 -107 -36 -132 -42 -53 -13 -85 -34 -75 -49 3 -6 16
-11 27 -11 40 0 153 32 213 60 33 16 60 28 61 27 1 -1 5 -12 8 -25 6 -19 2
-25 -28 -37 -19 -8 -37 -19 -41 -25 -3 -5 -23 -17 -43 -26 -20 -9 -53 -24 -72
-34 -67 -35 -216 -72 -282 -69 -35 1 -69 6 -75 12 -14 10 -17 49 -6 61 4 3 8
12 9 19 2 13 40 120 75 214 13 35 29 63 36 63 21 0 159 67 214 104 62 41 58
40 78 23z m317 -197 c4 0 17 -9 29 -20 32 -30 295 -160 324 -160 23 0 19 -6
-40 -63 l-66 -64 -89 13 c-154 21 -188 35 -230 89 -35 46 -63 152 -64 242 0
88 6 90 70 23 32 -33 61 -60 66 -60z m745 -140 c47 -13 52 -29 35 -98 -8 -32
-17 -76 -21 -100 -5 -28 -14 -46 -27 -53 -24 -13 -101 -16 -140 -6 -32 8 -68
60 -86 123 -25 87 -8 135 53 146 46 7 134 2 186 -12z m207 -101 c109 -53 154
-122 169 -260 7 -71 0 -74 -107 -48 -96 22 -125 41 -176 110 l-37 51 13 86 c6
48 14 93 16 99 4 15 24 8 122 -38z m-489 -29 l12 -61 -36 -50 c-36 -50 -42
-84 -16 -84 7 0 24 20 38 45 32 58 33 58 45 37 5 -10 23 -34 40 -53 l31 -35
-17 -44 c-10 -24 -32 -58 -49 -75 -37 -37 -176 -107 -229 -116 l-36 -6 -8 47
c-11 75 1 216 21 255 40 77 151 196 186 199 4 1 12 -26 18 -59z"/>
<path d="M4358 4203 c6 -2 9 -10 6 -15 -4 -7 -2 -8 4 -4 18 11 14 26 -5 25
-11 0 -13 -3 -5 -6z"/>
<path d="M4304 4138 l-19 -23 23 19 c21 18 27 26 19 26 -2 0 -12 -10 -23 -22z"/>
<path d="M5038 4090 c-67 -20 -135 -83 -153 -140 -4 -14 -11 -29 -15 -35 -39
-53 -53 -235 -25 -332 41 -139 99 -186 236 -186 70 0 83 3 114 27 55 42 73 65
105 132 59 125 60 302 4 413 -31 63 -70 96 -138 115 -59 17 -86 19 -128 6z
m118 -76 c49 -21 69 -44 90 -107 16 -50 22 -167 10 -217 -31 -130 -86 -212
-150 -224 -40 -8 -113 8 -138 31 -59 53 -83 227 -47 349 12 38 27 76 35 85 8
8 14 21 14 27 0 7 19 25 42 42 47 34 86 38 144 14z"/>
<path d="M3500 1128 c0 -18 3 -50 6 -71 6 -34 8 -35 20 -20 7 10 13 25 13 33
0 10 -3 8 -9 -5 -5 -11 -9 -15 -9 -8 -1 6 -4 19 -8 29 -5 13 -3 16 10 11 14
-5 16 -2 11 21 -13 53 -34 60 -34 10z"/>
<path d="M3530 1010 c-8 -5 -12 -11 -9 -14 2 -3 11 -1 19 4 8 5 12 11 9 14 -2
3 -11 1 -19 -4z"/>
<path d="M3535 980 c-17 -7 -17 -9 -2 -9 9 -1 17 -9 17 -18 0 -15 -2 -16 -10
-3 -9 13 -10 13 -10 0 0 -8 5 -22 10 -30 9 -13 10 -13 10 0 0 13 1 13 11 0 8
-11 9 -8 4 15 -3 17 -6 36 -7 43 -1 6 -2 12 -2 11 -1 0 -10 -4 -21 -9z"/>
<path d="M6551 4824 c0 -11 3 -14 6 -6 3 7 2 16 -1 19 -3 4 -6 -2 -5 -13z"/>
<path d="M6512 4751 c0 -17 1 -31 3 -31 7 0 12 39 5 49 -4 7 -7 -1 -8 -18z"/>
<path d="M6611 4694 c0 -11 3 -14 6 -6 3 7 2 16 -1 19 -3 4 -6 -2 -5 -13z"/>
<path d="M6531 4664 c0 -11 3 -14 6 -6 3 7 2 16 -1 19 -3 4 -6 -2 -5 -13z"/>
<path d="M6550 4611 c0 -6 4 -13 10 -16 6 -3 7 1 4 9 -7 18 -14 21 -14 7z"/>
<path d="M6660 4513 c0 -6 8 -17 18 -24 16 -13 16 -13 2 6 -8 11 -16 22 -17
24 -2 2 -3 0 -3 -6z"/>
<path d="M6701 4393 c7 -12 15 -20 18 -17 3 2 -3 12 -13 22 -17 16 -18 16 -5
-5z"/>
<path d="M6757 4399 c7 -7 15 -10 18 -7 3 3 -2 9 -12 12 -14 6 -15 5 -6 -5z"/>
<path d="M6795 4310 c10 -11 20 -20 23 -20 3 0 -3 9 -13 20 -10 11 -20 20 -23
20 -3 0 3 -9 13 -20z"/>
<path d="M6897 4299 c7 -7 15 -10 18 -7 3 3 -2 9 -12 12 -14 6 -15 5 -6 -5z"/>
<path d="M498 4293 c7 -3 16 -2 19 1 4 3 -2 6 -13 5 -11 0 -14 -3 -6 -6z"/>
<path d="M6940 4280 c8 -5 22 -9 30 -9 10 0 8 3 -5 9 -27 12 -43 12 -25 0z"/>
<path d="M7067 4259 c7 -7 15 -10 18 -7 3 3 -2 9 -12 12 -14 6 -15 5 -6 -5z"/>
<path d="M6880 4256 c0 -3 9 -10 20 -16 11 -6 20 -8 20 -6 0 3 -9 10 -20 16
-11 6 -20 8 -20 6z"/>
<path d="M178 4203 c7 -3 16 -2 19 1 4 3 -2 6 -13 5 -11 0 -14 -3 -6 -6z"/>
<path d="M7004 4128 l-19 -23 23 19 c21 18 27 26 19 26 -2 0 -12 -10 -23 -22z"/>
<path d="M7035 4090 c-10 -11 -16 -22 -14 -24 2 -2 12 7 22 20 22 29 17 32 -8
4z"/>
<path d="M6954 4014 c-18 -14 -18 -15 4 -4 12 6 22 13 22 15 0 8 -5 6 -26 -11z"/>
<path d="M6461 3974 c0 -11 3 -14 6 -6 3 7 2 16 -1 19 -3 4 -6 -2 -5 -13z"/>
<path d="M6678 3983 c7 -3 16 -2 19 1 4 3 -2 6 -13 5 -11 0 -14 -3 -6 -6z"/>
<path d="M6718 3983 c7 -3 16 -2 19 1 4 3 -2 6 -13 5 -11 0 -14 -3 -6 -6z"/>
<path d="M6568 3943 c7 -3 16 -2 19 1 4 3 -2 6 -13 5 -11 0 -14 -3 -6 -6z"/>
<path d="M3100 3645 c0 -8 2 -15 4 -15 2 0 6 7 10 15 3 8 1 15 -4 15 -6 0 -10
-7 -10 -15z"/>
<path d="M6820 3596 c0 -3 9 -10 20 -16 11 -6 20 -8 20 -6 0 3 -9 10 -20 16
-11 6 -20 8 -20 6z"/>
<path d="M6889 3551 c13 -12 28 -21 34 -21 12 0 11 0 -28 24 l-30 17 24 -20z"/>
<path d="M6945 3520 c3 -5 11 -10 16 -10 6 0 7 5 4 10 -3 6 -11 10 -16 10 -6
0 -7 -4 -4 -10z"/>
<path d="M3434 3502 c3 -5 0 -13 -6 -15 -9 -4 -10 -6 -1 -6 17 -1 25 16 12 25
-7 4 -9 3 -5 -4z"/>
<path d="M7000 3499 c47 -21 158 -45 176 -38 15 6 13 8 -11 8 -16 1 -55 8 -85
15 -30 8 -66 17 -80 20 l-25 7 25 -12z"/>
<path d="M1665 3410 c-3 -6 1 -7 9 -4 18 7 21 14 7 14 -6 0 -13 -4 -16 -10z"/>
<path d="M4148 3200 c-15 -4 -42 -18 -60 -31 -35 -24 -128 -114 -128 -124 0
-3 -11 -22 -23 -43 -33 -52 -67 -158 -67 -208 0 -29 -5 -44 -16 -48 -9 -3 -19
-4 -22 -2 -4 2 -25 7 -47 10 -70 11 -242 105 -302 165 -37 37 -58 50 -65 43
-48 -48 157 -196 335 -241 71 -18 144 -15 232 10 100 28 249 105 300 154 86
82 113 202 60 271 -15 19 -38 39 -52 45 -29 11 -107 11 -145 -1z m134 -54 c21
-15 38 -58 38 -93 0 -46 -68 -130 -148 -184 -94 -63 -106 -64 -77 -9 25 48 35
80 26 80 -5 0 -24 -32 -42 -70 l-34 -70 -64 -20 c-35 -11 -65 -19 -66 -18 -9
9 29 143 54 193 36 74 112 159 166 185 46 22 122 25 147 6z"/>
<path d="M3725 3140 c-4 -6 1 -7 11 -3 14 5 16 3 10 -13 -5 -14 -4 -16 5 -7
12 12 5 33 -11 33 -5 0 -12 -4 -15 -10z"/>
<path d="M6104 3095 c-120 -26 -207 -73 -306 -167 -118 -111 -202 -283 -211
-432 -2 -45 -8 -71 -18 -76 -8 -4 -44 -10 -80 -14 -262 -25 -419 -179 -422
-411 -1 -65 3 -89 21 -122 l21 -42 -29 -67 c-17 -36 -30 -74 -30 -83 0 -9 -4
-21 -9 -26 -35 -35 -36 -327 -2 -439 61 -203 156 -325 316 -405 108 -54 189
-73 310 -74 157 -1 206 10 333 70 69 33 180 115 212 157 88 116 140 217 159
311 7 33 16 67 18 75 14 40 19 173 15 437 -3 178 -25 260 -102 379 -12 19 -9
30 23 99 30 63 79 139 107 165 3 3 25 30 50 60 24 30 65 77 90 103 60 65 73
92 74 157 2 157 -163 314 -365 349 -80 13 -97 13 -175 -4z m231 -87 c118 -29
234 -171 223 -273 -5 -38 -16 -55 -92 -138 -90 -97 -169 -206 -226 -310 l-21
-38 -32 20 c-77 49 -208 103 -312 127 -16 4 -32 8 -35 9 -3 1 -43 5 -90 9
l-86 8 7 76 c13 147 61 254 162 358 34 35 65 64 68 64 4 0 30 16 59 35 52 35
105 54 170 62 19 2 36 6 39 9 6 6 116 -5 166 -18z m-486 -694 c115 -21 165
-39 236 -87 81 -55 149 -130 185 -202 26 -53 30 -71 30 -145 0 -47 1 -116 2
-155 6 -161 0 -352 -12 -395 -7 -25 -14 -49 -16 -55 -5 -21 -39 -110 -44 -115
-3 -3 -25 -34 -49 -69 -25 -35 -62 -80 -84 -99 -47 -44 -139 -102 -168 -107
-11 -2 -26 -8 -33 -13 -10 -9 -79 -27 -146 -39 -91 -16 -298 18 -379 62 -66
36 -124 93 -175 174 -39 61 -54 94 -85 193 -13 40 -17 205 -7 283 13 109 55
223 94 259 l21 18 -24 37 c-42 64 -51 169 -22 254 20 55 73 126 104 138 15 6
30 14 33 18 5 8 107 41 150 49 48 9 195 17 250 14 30 -2 93 -10 139 -18z"/>
<path d="M5434 1816 c-4 -10 -3 -21 2 -26 5 -4 65 -11 134 -14 69 -3 138 -7
155 -8 21 -2 30 2 33 14 5 25 -54 39 -195 45 -109 5 -123 4 -129 -11z"/>
<path d="M3954 1736 c-33 -33 -40 -55 -35 -116 5 -69 72 -117 147 -105 48 7
103 58 105 98 5 107 -39 157 -137 157 -39 0 -51 -5 -80 -34z m158 -24 c44 -40
43 -94 -3 -136 -27 -24 -37 -27 -71 -22 -69 11 -103 72 -74 132 28 60 96 71
148 26z"/>
<path d="M4048 1402 c-16 -2 -44 -18 -63 -36 -32 -30 -35 -39 -35 -87 0 -76
25 -114 87 -132 59 -17 98 -8 135 32 37 41 45 92 23 141 -10 22 -25 46 -34 54
-21 18 -78 32 -113 28z m80 -52 c61 -37 65 -100 10 -152 -45 -42 -90 -39 -135
9 -29 30 -34 41 -29 67 17 85 85 118 154 76z"/>
</g>
</svg>
